<svg width="28" height="30" viewBox="0 0 28 30" fill="none" xmlns="http://www.w3.org/2000/svg">
<path d="M27.0081 0.225351C23.9941 2.30986 20.945 5.09859 17.7766 8.66197C14.325 12.5493 10.6956 17.5423 7.67927 22.554C7.51078 22.8333 7.41016 22.9765 7.39144 22.9695C7.37272 22.9624 5.71596 21.8568 3.70585 20.5094C1.69575 19.162 0.0366491 18.0516 0.0179287 18.0399C-0.00781192 18.0258 -0.00547186 18.0352 0.0226088 18.0775C0.251934 18.4061 8.69017 29.9977 8.70187 30C8.70889 30 8.78143 29.8451 8.86099 29.6526C11.7276 22.8028 14.5286 17.3662 17.8421 12.2183C20.5285 8.04695 23.6478 4.00939 26.966 0.415493C27.1789 0.187794 27.3474 0 27.3427 0C27.3381 0 27.186 0.100939 27.0081 0.225351Z" fill="#48AE99"/>
</svg>
