<svg width="304" height="140" viewBox="0 0 304 140" fill="none" xmlns="http://www.w3.org/2000/svg">
<path d="M10.125 127.406V88.6875H3.53125V87.0938H38.9062L39.4375 99.75H38.0312C38.0312 99.3542 37.6667 97.9271 36.9375 95.4688C36.2083 92.9896 35.1354 91.2396 33.7188 90.2188C32.3229 89.1979 29.9583 88.6875 26.625 88.6875H17.5312V106.844H19.25C21.0833 106.844 22.5312 106.719 23.5938 106.469C24.6562 106.219 25.5729 105.521 26.3438 104.375C27.1354 103.229 27.6146 101.427 27.7812 98.9688H29.375V116.719H27.7812C27.6146 114.052 27.1875 112.125 26.5 110.938C25.8333 109.729 24.9792 108.99 23.9375 108.719C22.8958 108.448 21.3333 108.312 19.25 108.312H17.5312V127.406H24.9062V129H3.53125V127.406H10.125ZM61.2812 114.844H45.4688C45.3229 121.01 45.6667 124.812 46.5 126.25C47.3333 127.667 48.8229 128.375 50.9688 128.375C55.3854 128.375 58.375 125.812 59.9375 120.688H61.2812C60.5938 123.792 59.2917 126.083 57.375 127.562C55.4583 129.042 53.3229 129.781 50.9688 129.781C47.6146 129.781 44.6979 128.542 42.2188 126.062C39.7396 123.562 38.5 120.427 38.5 116.656C38.5 112.99 39.7083 109.906 42.125 107.406C44.5625 104.906 47.3854 103.656 50.5938 103.656C53.3854 103.656 55.8229 104.646 57.9062 106.625C60.0104 108.604 61.1354 111.344 61.2812 114.844ZM45.4688 113.438H54.5625C54.7292 111.958 54.8125 110.833 54.8125 110.062C54.8125 106.729 53.3021 105.062 50.2812 105.062C48.7812 105.062 47.6042 105.469 46.75 106.281C45.8958 107.073 45.4688 108.156 45.4688 109.531V113.438ZM88.5938 114.844H72.7812C72.6354 121.01 72.9792 124.812 73.8125 126.25C74.6458 127.667 76.1354 128.375 78.2812 128.375C82.6979 128.375 85.6875 125.812 87.25 120.688H88.5938C87.9062 123.792 86.6042 126.083 84.6875 127.562C82.7708 129.042 80.6354 129.781 78.2812 129.781C74.9271 129.781 72.0104 128.542 69.5312 126.062C67.0521 123.562 65.8125 120.427 65.8125 116.656C65.8125 112.99 67.0208 109.906 69.4375 107.406C71.875 104.906 74.6979 103.656 77.9062 103.656C80.6979 103.656 83.1354 104.646 85.2188 106.625C87.3229 108.604 88.4479 111.344 88.5938 114.844ZM72.7812 113.438H81.875C82.0417 111.958 82.125 110.833 82.125 110.062C82.125 106.729 80.6146 105.062 77.5938 105.062C76.0938 105.062 74.9167 105.469 74.0625 106.281C73.2083 107.073 72.7812 108.156 72.7812 109.531V113.438ZM96.4375 127.406V88.6875H91.9688V87.0938H96.25C99.125 87.0938 101.219 86.9375 102.531 86.625V127.406H106.938V129H91.9688V127.406H96.4375ZM117.969 127.406V88.6875H111.125V87.0938H132.312V88.6875H125.406V127.406H132.312V129H111.125V127.406H117.969ZM141.719 127.406V106.031H137.281V104.438H140.125C142.938 104.438 145.49 104.281 147.781 103.969V110.062H147.906C150.052 105.792 153.083 103.656 157 103.656C158.833 103.656 160.333 104.125 161.5 105.062C162.688 106 163.49 107.104 163.906 108.375C164.344 109.646 164.562 111.615 164.562 114.281V127.406H169.438V129H154.312V127.406H158.469V111.781C158.469 109.385 158.312 107.729 158 106.812C157.708 105.896 156.927 105.438 155.656 105.438C153.635 105.438 151.812 106.479 150.188 108.562C148.583 110.625 147.781 113.406 147.781 116.906V127.406H151.875V129H137.281V127.406H141.719Z" fill="black"/>
<path d="M171.266 0.343231C171.15 0.545471 171.034 1.18893 171.034 1.75886C171.034 2.60455 171.169 3.10094 171.749 4.18563C172.155 4.97617 172.599 5.58287 172.812 5.63802C173.237 5.72995 173.275 6.04249 172.87 6.04249C172.715 6.04249 172.58 5.95056 172.58 5.85864C172.58 5.74833 172.406 5.6748 172.213 5.6748C172 5.6748 171.807 5.60126 171.768 5.52772C171.691 5.32549 169.604 4.38786 169.237 4.38786C169.063 4.38786 168.87 4.29594 168.812 4.20402C168.754 4.09371 168.484 4.02017 168.233 4.02017C167.982 4.02017 167.711 3.92825 167.653 3.83633C167.595 3.72601 167.325 3.65248 167.054 3.65248C166.803 3.65248 166.59 3.56055 166.59 3.46863C166.59 3.35832 166.301 3.28478 165.934 3.28478C165.566 3.28478 165.199 3.19286 165.141 3.10094C165.083 2.99063 164.562 2.91709 164.001 2.91709C162.707 2.91709 162.34 3.24802 162.34 4.42464C162.34 5.27033 162.842 6.44695 163.654 7.40295C164.098 7.9545 164.253 8.48765 163.847 8.10157C163.692 7.9545 162.9 7.88096 161.567 7.88096C159.152 7.88096 158.862 8.04642 158.708 9.49881C158.63 10.3077 158.997 11.5579 159.422 11.9256C159.5 11.9807 159.674 12.2565 159.828 12.5691C159.983 12.8632 160.234 13.2677 160.369 13.4331C160.601 13.6905 160.601 13.8192 160.408 14.0398C160.273 14.1869 160.041 14.3156 159.905 14.3156C159.751 14.3156 159.635 14.4994 159.635 14.7568C159.635 15.0142 159.558 15.2716 159.442 15.3268C159.345 15.3819 159.249 15.8415 159.249 16.3563C159.249 16.8527 159.345 17.2571 159.442 17.2571C159.558 17.2571 159.635 17.4594 159.635 17.68C159.635 17.919 159.809 18.2683 160.021 18.4522C160.234 18.636 160.408 18.875 160.408 18.9853C160.408 19.0772 160.717 19.4817 161.103 19.8494L161.78 20.5112L161.393 21.1915C160.968 21.9085 160.814 23.8756 161.181 23.8756C161.297 23.8756 161.374 24.0411 161.374 24.2433C161.374 24.7765 161.722 25.3096 162.804 26.3943C163.673 27.2584 163.731 27.3871 163.48 27.6813C162.9 28.3799 162.726 28.8027 162.977 28.913C163.151 29.005 163.151 29.0417 162.977 29.1337C162.688 29.2624 162.649 29.8139 162.9 30.2735C162.997 30.439 163.229 30.8802 163.403 31.2295C163.944 32.3142 164.195 32.7003 164.774 33.2702C165.199 33.6931 165.257 33.8585 165.083 34.024C164.62 34.4652 164.813 36.0647 165.489 37.3332C166.146 38.5282 166.977 39.5026 167.363 39.5026C167.653 39.5026 167.595 39.9806 167.267 40.238C166.938 40.4954 166.861 41.9846 167.17 42.1684C167.286 42.2236 167.363 42.4442 167.363 42.6648C167.363 43.2347 167.943 44.0988 169.083 45.2386C170.087 46.2314 170.126 46.3233 169.875 46.7462C169.353 47.6838 169.72 49.7061 170.551 50.3496C170.706 50.4783 170.841 50.6805 170.841 50.7908C170.841 50.9195 171.227 51.3791 171.71 51.8204C172.193 52.2616 172.58 52.7396 172.58 52.8683C172.58 53.1624 172.174 53.8794 171.904 54.0633C171.768 54.1552 171.788 54.3207 171.962 54.5781C172.077 54.7803 172.193 55.148 172.193 55.4238C172.193 55.6812 172.387 56.1591 172.638 56.4717C172.87 56.7842 173.159 57.2255 173.256 57.4277C173.372 57.6299 173.739 57.9609 174.106 58.1631C174.454 58.3653 175.014 58.7514 175.323 59.0088C175.922 59.4868 175.922 59.4868 175.613 60.0935C175.149 60.9759 175.169 62.5203 175.671 62.8144C176.058 63.035 176.058 63.035 175.671 63.6785C175.459 64.0462 175.285 64.5242 175.285 64.7448C175.285 65.2412 176.27 66.1788 177.178 66.5465C177.912 66.8407 177.97 67.098 177.371 67.3554C176.753 67.6128 176.386 68.4401 176.386 69.5432C176.386 70.4257 176.444 70.5176 177.333 71.2714C178.144 71.97 178.221 72.1171 178.028 72.4296C177.893 72.6134 177.796 73.165 177.796 73.6614C177.796 74.3968 177.893 74.6358 178.337 75.0218C178.627 75.2792 179.149 75.5918 179.497 75.7388C180.115 75.9962 180.134 76.0146 180.018 76.8235C179.941 77.2832 179.806 77.7244 179.709 77.8347C179.613 77.9266 179.535 78.3495 179.535 78.7723C179.535 79.4158 179.651 79.6364 180.25 80.2063C180.656 80.574 181.081 80.8682 181.197 80.8682C181.313 80.8682 181.525 80.9969 181.661 81.1439C181.854 81.3646 181.834 81.5116 181.583 81.8793C181.332 82.2286 181.274 82.6883 181.313 83.7546C181.371 84.9312 181.429 85.1886 181.757 85.354C181.97 85.4643 182.182 85.6114 182.24 85.6666C182.298 85.7217 182.627 85.8872 182.974 86.0343L183.612 86.2917L183.477 88.222L183.361 90.1524L183.921 90.6121C184.694 91.2371 185.254 91.5313 185.699 91.5313C186.394 91.5313 186.568 92.0277 186.51 93.7007L186.471 95.3002L187.109 95.8701C187.457 96.1642 188.094 96.5871 188.519 96.7709C189.852 97.396 189.968 97.5431 189.968 98.7013C189.968 100.485 190.838 101.533 192.615 101.9C193.311 102.047 193.833 102.819 193.833 103.684C193.833 104.676 194.412 105.596 195.243 105.945C195.649 106.11 196.035 106.423 196.093 106.607C196.151 106.809 196.364 107.011 196.557 107.066C196.769 107.14 196.924 107.361 196.924 107.6C196.924 107.839 197.059 108.133 197.233 108.261C197.89 108.795 197.948 109.181 197.465 109.714C196.653 110.559 196.46 111.093 196.731 111.699C196.982 112.232 197.697 112.674 198.296 112.674C198.489 112.674 198.663 112.784 198.721 112.894C198.779 113.078 198.914 113.078 199.3 112.876C199.59 112.729 199.88 112.674 199.957 112.747C200.189 112.968 199.493 113.446 198.875 113.483C198.547 113.501 198.18 113.611 198.044 113.74C197.928 113.85 197.716 113.961 197.581 113.961C197.445 113.961 197.31 114.034 197.272 114.108C197.194 114.292 194.373 115.615 194.064 115.615C193.929 115.615 193.833 115.689 193.833 115.762C193.833 115.854 193.523 116.02 193.156 116.167C192.77 116.314 192.326 116.571 192.152 116.755C191.978 116.939 191.765 117.086 191.688 117.086C191.379 117.086 189.968 117.729 189.968 117.858C189.968 117.95 189.814 118.005 189.621 118.005C189.447 118.005 189.176 118.171 189.06 118.355C188.925 118.557 188.577 118.759 188.249 118.833C187.94 118.888 187.573 119.072 187.437 119.219C187.321 119.347 186.568 119.77 185.795 120.138C185.003 120.506 184.327 120.873 184.269 120.965C184.114 121.186 181.603 122.326 181.39 122.27C181.293 122.234 181.062 122.344 180.888 122.509C180.405 122.932 176.038 124.991 175.632 124.991C175.459 124.991 175.246 125.065 175.188 125.175C175.13 125.267 174.821 125.359 174.512 125.359C174.203 125.359 173.894 125.451 173.836 125.543C173.758 125.653 173.546 125.69 173.353 125.635C173.159 125.58 172.947 125.617 172.87 125.727C172.812 125.819 172.503 125.911 172.193 125.911C171.884 125.911 171.575 126.003 171.517 126.095C171.459 126.205 171.189 126.278 170.918 126.278C170.667 126.278 170.455 126.352 170.455 126.462C170.455 126.554 170.59 126.646 170.744 126.646C170.899 126.646 171.034 126.72 171.034 126.83C171.034 126.922 170.899 127.014 170.744 127.014C170.59 127.014 170.455 127.142 170.455 127.29C170.455 127.455 170.628 127.565 170.918 127.565C171.208 127.565 171.421 127.694 171.479 127.933C171.556 128.19 171.749 128.301 172.155 128.301C172.483 128.301 172.812 128.227 172.87 128.117C172.928 128.025 173.333 127.933 173.739 127.933C174.145 127.933 174.551 127.841 174.608 127.749C174.666 127.639 174.937 127.565 175.188 127.565C175.439 127.565 175.69 127.492 175.768 127.4C175.826 127.308 176.135 127.179 176.444 127.106C176.772 127.032 177.7 126.664 178.511 126.26C179.323 125.856 180.018 125.58 180.057 125.617C180.096 125.653 180.791 125.359 181.603 124.973C182.414 124.587 183.264 124.256 183.515 124.256C183.747 124.256 183.998 124.183 184.076 124.091C184.134 123.98 184.675 123.686 185.293 123.429C185.892 123.153 186.549 122.859 186.723 122.767C187.148 122.565 187.457 122.546 187.457 122.748C187.457 122.84 187.148 123.006 186.78 123.153C186.278 123.337 186.162 123.465 186.317 123.631C186.452 123.778 186.452 123.888 186.297 123.98C186.201 124.035 186.104 124.495 186.104 124.973C186.104 125.653 186.201 125.929 186.549 126.242C187.012 126.664 188.287 126.812 188.519 126.462C188.577 126.37 188.809 126.278 189.002 126.278C189.215 126.278 189.659 126.131 190.007 125.947C190.625 125.617 192.441 125.212 191.939 125.525C191.727 125.635 191.746 125.8 192.036 126.278C192.441 126.959 193.311 127.529 193.987 127.547C194.219 127.565 194.412 127.639 194.412 127.749C194.412 127.841 194.586 127.933 194.799 127.933C195.011 127.933 195.185 128.007 195.185 128.117C195.185 128.209 195.552 128.301 196.016 128.301C196.479 128.301 196.943 128.393 197.078 128.521C197.252 128.687 197.368 128.687 197.542 128.521C197.677 128.393 198.064 128.301 198.431 128.301C198.991 128.301 199.068 128.337 198.856 128.576C198.663 128.797 198.682 128.871 198.952 128.963C199.126 129.036 199.358 128.999 199.493 128.871C199.609 128.76 200.034 128.668 200.44 128.668C200.846 128.668 201.329 128.595 201.522 128.503C202.469 128.025 204.807 127.014 204.961 127.014C205.058 127.014 205.483 126.628 205.889 126.186C206.314 125.727 206.758 125.359 206.913 125.359C207.048 125.359 207.241 125.212 207.299 125.028C207.724 123.98 208.825 123.962 210.004 124.991C210.468 125.414 210.931 125.69 211.047 125.635C211.144 125.561 211.337 125.598 211.472 125.69C211.781 125.929 216.824 125.947 217.133 125.708C217.288 125.58 217.597 125.653 218.099 125.929C218.679 126.223 218.911 126.278 219.181 126.113C219.394 125.984 220.901 125.911 223.374 125.911C226.001 125.911 227.277 125.837 227.373 125.708C227.45 125.58 227.779 125.543 228.146 125.598C228.513 125.653 228.841 125.617 228.899 125.525C228.977 125.433 230.02 125.359 231.237 125.359C232.57 125.359 233.44 125.286 233.44 125.175C233.44 125.065 233.981 124.991 234.696 124.991C235.411 124.991 235.951 124.918 235.951 124.808C235.951 124.697 236.241 124.624 236.608 124.624C236.975 124.624 237.343 124.532 237.401 124.44C237.459 124.33 237.768 124.256 238.077 124.256C238.386 124.256 238.695 124.164 238.753 124.072C238.83 123.962 239.101 123.87 239.391 123.87C239.68 123.852 241.149 123.815 242.656 123.778C244.395 123.723 245.554 123.76 245.786 123.888C246.037 124.017 246.211 124.017 246.288 123.888C246.346 123.796 246.752 123.704 247.157 123.704C247.563 123.704 247.969 123.613 248.027 123.521C248.085 123.41 248.529 123.337 249.012 123.337C249.476 123.337 249.862 123.245 249.862 123.153C249.862 123.043 250.345 122.969 250.925 122.969C251.505 122.969 251.988 122.877 251.988 122.785C251.988 122.675 252.567 122.601 253.321 122.601C254.074 122.601 254.731 122.509 254.789 122.418C254.866 122.307 255.021 122.234 255.137 122.252C255.504 122.307 256.47 122.013 257.166 121.645C257.513 121.462 257.9 121.314 258.035 121.314C258.344 121.314 260.411 120.322 260.856 119.972C261.03 119.825 261.474 119.586 261.841 119.402C262.208 119.237 262.691 118.998 262.884 118.869C263.522 118.483 265.126 116.994 265.126 116.792C265.126 116.682 265.357 116.406 265.628 116.148C266.15 115.689 266.865 114.365 266.865 113.887C266.865 113.74 266.961 113.556 267.058 113.501C267.174 113.446 267.251 113.115 267.251 112.766C267.251 112.416 267.348 112.085 267.444 112.03C267.56 111.975 267.637 111.313 267.637 110.559C267.637 109.806 267.734 109.144 267.831 109.089C267.946 109.015 268.024 107.93 268.024 106.423C268.024 104.915 267.946 103.831 267.831 103.757C267.734 103.702 267.637 102.985 267.637 102.194C267.637 101.073 267.541 100.577 267.251 100.08C267.038 99.7125 266.865 99.2712 266.865 99.069C266.865 98.8852 266.671 98.4991 266.42 98.2049C266.169 97.9292 265.918 97.5431 265.841 97.3592C265.783 97.1938 265.609 97.0467 265.454 97.0467C265.319 97.0467 264.952 96.7893 264.643 96.4952C263.812 95.6678 261.165 94.4728 260.18 94.4728C259.716 94.4728 259.291 94.3809 259.233 94.289C259.175 94.1787 258.46 94.1051 257.668 94.1051C256.238 94.1051 255.987 93.9765 256.528 93.5536C256.683 93.4249 256.818 93.2043 256.818 93.0388C256.818 92.8734 256.972 92.5792 257.166 92.377C257.359 92.1564 257.687 91.6232 257.88 91.1636C258.074 90.704 258.402 90.1708 258.595 89.9502C258.788 89.748 258.943 89.4906 258.943 89.3803C258.943 89.27 259.001 89.1413 259.098 89.1045C259.31 89.0126 260.295 87.7257 260.295 87.5234C260.295 87.4315 260.431 87.2477 260.585 87.119C260.759 86.9903 261.049 86.5307 261.262 86.1262C261.455 85.7033 261.802 85.207 262.015 85.0231C262.247 84.8209 262.421 84.6003 262.421 84.5267C262.421 84.3613 262.769 83.9384 263.928 82.6883C264.256 82.3206 264.546 81.9345 264.546 81.8426C264.546 81.7506 264.932 81.3094 265.415 80.8682C265.898 80.4269 266.285 79.9673 266.285 79.857C266.285 79.7467 266.671 79.2871 267.154 78.8459C267.637 78.4046 268.024 77.945 268.024 77.8347C268.024 77.5773 269.357 76.3639 269.821 76.2168C269.994 76.1433 270.149 75.9962 270.149 75.8675C270.149 75.7572 271.018 74.7828 272.1 73.7165C273.182 72.6502 274.979 70.8485 276.119 69.7087C277.24 68.5688 278.264 67.6496 278.38 67.6496C278.496 67.6312 278.747 67.4657 278.94 67.2635C279.133 67.0613 279.384 66.8958 279.52 66.8958C279.635 66.8958 280.08 66.5649 280.486 66.142C280.911 65.7376 281.606 65.2412 282.031 65.0573C283.017 64.5977 283.5 64.3036 283.886 63.8991C284.06 63.7336 284.253 63.5866 284.33 63.5866C284.601 63.5866 286.166 62.8512 286.282 62.6673C286.34 62.5754 286.861 62.2812 287.402 62.0423C287.963 61.8033 288.542 61.4723 288.677 61.3069C288.813 61.1414 289.045 61.0127 289.161 61.0127C289.296 61.0127 289.74 60.6818 290.146 60.2589C290.571 59.8545 291.266 59.3581 291.692 59.1742C292.117 58.9904 292.638 58.6595 292.831 58.4572C293.044 58.2366 293.276 58.0712 293.372 58.0712C293.469 58.0712 294.126 57.538 294.802 56.8762C295.498 56.2143 296.116 55.6812 296.193 55.6812C296.386 55.6812 297.584 54.5229 297.584 54.3391C297.584 54.2839 298.145 53.6956 298.84 53.0338C299.536 52.3903 300.096 51.7652 300.096 51.6733C300.096 51.5997 300.289 51.3424 300.54 51.1217C300.792 50.9011 301.101 50.4231 301.255 50.0738C301.41 49.7245 301.642 49.4304 301.796 49.4304C301.951 49.4304 302.028 49.32 301.97 49.173C301.912 49.0259 302.067 48.5111 302.337 48.0515C302.588 47.5919 302.801 47.0403 302.801 46.8565C302.801 46.6727 302.897 46.452 302.994 46.3969C303.11 46.3417 303.187 46.0843 303.187 45.8453C303.187 45.6063 303.284 45.3857 303.419 45.349C303.709 45.257 303.67 42.9406 303.342 42.4626C303.168 42.1868 303.168 42.0397 303.342 41.8375C303.535 41.6169 303.496 41.5433 303.168 41.4698C302.801 41.3779 302.782 41.3227 302.994 41.0837C303.187 40.8447 303.187 40.7896 302.917 40.7896C302.743 40.7896 302.492 40.4954 302.337 40.1461C302.183 39.7968 301.912 39.5026 301.758 39.5026C301.584 39.5026 301.448 39.3372 301.448 39.1349C301.448 38.8775 301.313 38.7672 301.004 38.7672C300.753 38.7672 300.463 38.6753 300.366 38.5834C300.115 38.3444 298.937 38.8775 298.937 39.2452C298.937 39.3923 298.821 39.5026 298.686 39.5026C298.55 39.5026 298.318 39.7968 298.164 40.1461C297.99 40.5506 297.778 40.7896 297.546 40.7896C297.256 40.7896 297.237 40.8447 297.43 41.1389C297.604 41.4146 297.604 41.5617 297.41 41.7823C297.237 41.9846 297.217 42.0765 297.372 42.0765C297.488 42.0765 297.584 42.2419 297.584 42.4442C297.584 42.8303 297.121 42.9589 296.908 42.628C296.85 42.5177 296.58 42.4442 296.309 42.4442C296.058 42.4442 295.845 42.3522 295.845 42.2603C295.845 42.0397 294.165 42.0029 294.068 42.2236C294.049 42.2971 293.508 42.5912 292.909 42.8854C292.29 43.1612 291.749 43.4553 291.692 43.5473C291.634 43.6392 291.46 43.6759 291.305 43.6024C291.131 43.5473 291.015 43.6208 291.015 43.8046C291.015 43.9701 290.938 44.0988 290.841 44.0988C290.745 44.0988 290.629 44.2459 290.59 44.4297C290.494 44.7239 290.223 44.7974 288.793 44.8893C287.847 44.9445 286.997 45.0916 286.881 45.2019C286.784 45.2938 286.494 45.3857 286.262 45.3857C286.011 45.3857 285.702 45.5512 285.548 45.7718C285.374 46.0108 285.219 46.066 285.122 45.9557C284.929 45.6247 284.639 45.735 284.639 46.1211C284.639 46.3785 284.504 46.4888 284.195 46.4888C283.944 46.4888 283.577 46.6543 283.384 46.8565C282.804 47.4632 281.915 47.8125 281.606 47.5551C281.432 47.4264 281.278 47.408 281.2 47.5183C280.949 47.8309 278.998 48.6766 278.727 48.5663C278.553 48.5111 278.457 48.5847 278.457 48.7869C278.457 49.0075 278.36 49.0627 278.07 48.9707C277.819 48.8972 277.684 48.934 277.684 49.0994C277.684 49.412 276.254 50.0187 275.849 49.8716C275.655 49.798 275.559 49.8716 275.559 50.0554C275.559 50.2209 275.443 50.3496 275.288 50.3496C275.134 50.3496 274.96 50.4599 274.902 50.5702C274.805 50.7541 274.767 50.7541 274.67 50.5702C274.573 50.3864 274.438 50.4231 274.11 50.7173C273.839 50.9563 273.395 51.1217 272.873 51.1401C272.429 51.1585 272.081 51.2504 272.081 51.3791C272.081 51.4894 271.675 51.7652 271.173 52.0042C270.651 52.2432 270.091 52.5741 269.898 52.7212C269.492 53.0521 268.816 53.4382 268.372 53.5853C268.198 53.6404 268.024 53.8427 267.966 54.0449C267.908 54.2288 267.734 54.3942 267.56 54.3942C267.386 54.3942 267.251 54.4678 267.251 54.5781C267.251 54.67 267 54.7619 266.671 54.7619C266.014 54.7619 264.778 55.2583 264.333 55.7179C264.16 55.9018 263.947 56.0488 263.87 56.0488C263.793 56.0488 263.522 56.2143 263.252 56.3982C263 56.6004 262.653 56.7107 262.498 56.6555C262.305 56.582 262.17 56.6923 262.092 56.9497C262.034 57.1519 261.86 57.3358 261.725 57.3358C261.571 57.3358 261.455 57.4461 261.455 57.5748C261.455 57.7218 261.281 57.9792 261.068 58.1631C260.759 58.4205 260.624 58.4572 260.45 58.2918C260.141 57.9976 259.909 58.016 259.909 58.3469C259.909 58.494 259.793 58.6227 259.658 58.6227C259.271 58.6227 258.247 59.1375 257.977 59.45C257.842 59.5971 257.629 59.7258 257.513 59.7258C257.378 59.7258 257.069 59.928 256.818 60.1854C256.567 60.4428 256.257 60.645 256.142 60.645C255.871 60.645 255.176 61.3436 255.021 61.7665C254.963 61.9319 254.441 62.2996 253.862 62.557C252.799 63.0534 249.862 65.6273 249.862 66.0685C249.862 66.1972 249.708 66.3627 249.534 66.4178C248.877 66.6384 248.278 67.0429 247.467 67.7967C247.022 68.2195 246.559 68.5504 246.443 68.5504C246.211 68.5504 245.612 69.5432 245.612 69.9293C245.612 70.0396 245.399 70.2602 245.129 70.3889C244.858 70.5176 244.646 70.7014 244.646 70.7934C244.646 70.8669 244.53 70.9404 244.395 70.9404C244.105 70.9404 242.521 72.4296 242.521 72.687C242.521 72.8892 241.612 73.3305 241.207 73.3305C240.917 73.3305 240.047 73.6614 238.792 74.2681C238.367 74.4519 237.942 74.6174 237.806 74.6174C237.671 74.6174 236.975 74.9115 236.261 75.2608C235.526 75.6102 234.812 75.9043 234.676 75.9043C234.406 75.9043 233.652 76.2536 233.44 76.4558C233.073 76.8235 232.203 77.1912 231.74 77.1912C231.334 77.1912 231.141 77.3015 231.063 77.5589C231.005 77.7612 230.832 77.9266 230.658 77.9266C230.426 77.9266 230.349 77.7428 230.349 77.1177C230.349 76.6581 230.271 76.2352 230.155 76.1801C230.059 76.1249 229.962 75.5734 229.962 74.9851C229.962 74.3968 229.885 73.8636 229.788 73.8085C229.711 73.7533 229.576 73.1282 229.498 72.4112C229.421 71.7126 229.286 71.0875 229.17 71.0324C229.073 70.9588 228.996 70.5176 228.996 70.0212C228.996 69.5248 228.919 69.0652 228.803 69.01C228.706 68.9549 228.61 68.4953 228.61 67.9989C228.61 67.5025 228.532 67.0429 228.416 66.9877C228.32 66.9326 228.223 66.3075 228.223 65.6089C228.223 64.9103 228.146 64.3036 228.049 64.23C227.953 64.1749 227.798 63.6049 227.74 62.9431C227.663 62.2812 227.528 61.6929 227.431 61.6378C227.334 61.5826 227.257 61.362 227.257 61.123C227.257 60.7186 226.059 58.2918 225.77 58.0895C225.673 58.0344 225.364 57.5196 225.055 56.9681C224.127 55.2031 223.683 54.4861 223.393 54.2104C223.219 54.0633 222.929 53.6404 222.736 53.2911C222.176 52.2432 221.925 51.8388 221.596 51.4894C221.403 51.3056 221.268 51.0666 221.268 50.9563C221.268 50.8644 221.055 50.5886 220.785 50.3496C220.514 50.1106 220.302 49.8348 220.302 49.7429C220.302 49.651 220.147 49.4304 219.973 49.2649C219.587 48.934 219.22 48.4192 218.969 47.8309C218.853 47.6287 218.698 47.3897 218.582 47.3345C218.466 47.261 218.234 46.8933 218.041 46.5256C217.693 45.827 216.901 44.632 216.67 44.4665C216.592 44.4113 216.399 44.1172 216.244 43.823C216.09 43.5105 215.839 43.1244 215.684 42.9406C215.375 42.5912 215.105 42.15 214.583 41.1572C214.39 40.8079 214.196 40.477 214.119 40.4219C213.829 40.1645 212.999 38.9695 212.767 38.4547C212.612 38.1422 212.342 37.8296 212.168 37.7928C211.975 37.7377 211.646 37.3332 211.434 36.892C211.221 36.4324 210.912 35.9544 210.738 35.8257C210.584 35.697 210.448 35.5131 210.448 35.4028C210.448 35.3109 210.236 34.9432 209.965 34.6123C209.695 34.2814 209.482 33.9321 209.482 33.8585C209.482 33.7666 209.231 33.4541 208.903 33.1599C208.593 32.8658 208.323 32.5348 208.323 32.4245C208.323 32.3142 208.11 32.0201 207.84 31.7811C207.569 31.5421 207.357 31.2479 207.357 31.1376C207.357 31.0273 207.048 30.6596 206.681 30.3103C206.314 29.961 206.005 29.63 206.005 29.5381C206.005 29.391 205.56 28.8947 204.034 27.2768C203.512 26.762 203.106 26.2473 203.106 26.1553C203.106 26.045 202.72 25.6038 202.237 25.1626C201.754 24.7213 201.368 24.2617 201.368 24.1514C201.368 24.0411 200.769 23.3792 200.015 22.6806C199.281 21.982 198.663 21.3202 198.663 21.2099C198.663 20.9709 192.055 14.6833 191.804 14.6833C191.688 14.6833 190.954 14.0582 190.162 13.3044C189.369 12.5507 188.635 11.9256 188.519 11.9256C188.403 11.9256 187.843 11.466 187.264 10.9144C186.684 10.3629 186.104 9.90327 185.969 9.90327C185.834 9.90327 185.718 9.77458 185.718 9.6275C185.718 9.48042 185.602 9.35173 185.467 9.35173C185.331 9.35173 184.655 8.81857 183.979 8.15673C183.303 7.49488 182.665 6.96172 182.588 6.96172C182.511 6.96172 181.931 6.48372 181.293 5.89541C179.902 4.62687 178.666 3.65248 178.395 3.65248C178.299 3.65248 178.144 3.48701 178.086 3.28478C178.028 3.08255 177.854 2.91709 177.719 2.91709C177.584 2.91709 177.275 2.71486 177.024 2.45747C176.772 2.20009 176.463 1.99786 176.328 1.99786C176.212 1.99786 175.98 1.86916 175.845 1.7037C175.71 1.53824 175.42 1.33601 175.188 1.24409C174.976 1.15216 174.666 1.00508 174.512 0.913162C172.754 -0.0612335 171.672 -0.263458 171.266 0.343231Z" fill="black"/>
</svg>
