<svg width="32" height="40" viewBox="0 0 32 40" fill="none" xmlns="http://www.w3.org/2000/svg">
<path d="M21.8197 5.8215L22.3237 5.82269C24.9457 5.84349 26.2515 6.13897 27.6061 6.93383C28.8798 7.68117 29.8866 8.78588 30.576 10.2004L30.6983 10.4606C31.293 11.7747 31.5411 13.1535 31.577 15.6424L31.5816 16.3175V29.2641L31.5772 29.9054C31.5391 32.5739 31.2707 33.9463 30.5678 35.3883C29.8866 36.7857 28.8798 37.8904 27.5905 38.6467L27.3534 38.7809C26.1557 39.4334 24.899 39.7056 22.6306 39.745L22.0152 39.7501H10.2154L9.63078 39.7452C7.19865 39.7035 5.94783 39.4089 4.63358 38.6377C3.35993 37.8904 2.35307 36.7857 1.66371 35.3711L1.54143 35.1109C0.917817 33.7331 0.677679 32.2915 0.65918 29.5764V15.9791C0.678146 13.1023 0.947457 11.6696 1.67192 10.1833C2.35307 8.78588 3.35993 7.68117 4.64919 6.92482L4.88633 6.79066C6.14216 6.10645 7.4561 5.84298 9.93069 5.82268L10.4233 5.82263C11.0974 5.82256 11.644 6.42213 11.644 7.1618C11.6441 7.90146 11.0976 8.50113 10.4235 8.5012L9.66911 8.5045C7.73003 8.53603 6.81119 8.73257 5.98928 9.1802L5.78491 9.29583C4.93671 9.79353 4.27833 10.5159 3.82471 11.4465C3.32873 12.464 3.13042 13.4523 3.10284 15.7224L3.09943 16.3174L3.10047 29.5662C3.1164 31.899 3.2928 32.958 3.71932 33.9008L3.82471 34.125C4.27833 35.0557 4.93671 35.778 5.78491 36.2757C6.72081 36.8249 7.59776 37.0314 9.65899 37.0668L10.2245 37.0715H22.0152C24.3361 37.0715 25.3567 36.8781 26.2504 36.3914L26.4548 36.2757C27.303 35.778 27.9614 35.0557 28.415 34.125C28.9155 33.0982 29.1038 32.136 29.136 29.8745L29.1403 29.254V16.3175C29.1403 13.7711 28.964 12.6513 28.5204 11.6707L28.415 11.4465C27.9614 10.5159 27.303 9.79353 26.4548 9.29583C25.4501 8.7063 24.4768 8.50007 22.0152 8.50007H21.8197C21.1456 8.50007 20.5991 7.90045 20.5991 7.16078C20.5991 6.42112 21.1456 5.8215 21.8197 5.8215ZM16.1199 0.464355C16.794 0.464355 17.3405 1.06397 17.3405 1.80364L17.34 26.2483L21.36 21.8388C21.8069 21.3484 22.5142 21.3178 22.9936 21.7468L23.0863 21.8388C23.563 22.3618 23.563 23.2098 23.0863 23.7328L16.983 30.4292C16.5063 30.9522 15.7334 30.9522 15.2567 30.4292L9.15339 23.7328C8.67669 23.2098 8.67669 22.3618 9.15339 21.8388C9.63009 21.3157 10.403 21.3157 10.8797 21.8388L14.8986 26.2483L14.8992 1.80364C14.8992 1.10748 15.3833 0.535383 16.0023 0.470486L16.1199 0.464355Z" fill="white"/>
</svg>
